<?xml version="1.0" encoding="UTF-8"?>
<svg width="22px" height="22px" viewBox="0 0 22 22" version="1.1" xmlns="http://www.w3.org/2000/svg" xmlns:xlink="http://www.w3.org/1999/xlink">
    <title>Shape</title>
    <desc>Created with Sketch.</desc>
    <defs></defs>
    <g id="Page-1" stroke="none" stroke-width="1" fill="none" fill-rule="evenodd">
        <g id="if_cross-24_103181" fill-rule="nonzero" fill="#D70000">
            <path d="M21.245,3.015 C21.558,3.328 21.558,3.841 21.245,4.154 L14.969,10.424 C14.656,10.736 14.656,11.25 14.969,11.564 L21.242,17.836 C21.555,18.149 21.555,18.662 21.242,18.976 L18.957,21.253 C18.643,21.565 18.129,21.565 17.815,21.253 L11.544,14.982 C11.231,14.669 10.716,14.669 10.403,14.982 L4.127,21.249 C3.814,21.562 3.299,21.562 2.986,21.249 L0.704,18.969 C0.391,18.656 0.391,18.143 0.704,17.829 L6.982,11.56 C7.295,11.248 7.295,10.734 6.982,10.42 L0.709,4.147 C0.395,3.834 0.395,3.32 0.709,3.007 L2.993,0.729 C3.308,0.417 3.821,0.417 4.135,0.73 L10.405,7 C10.719,7.314 11.233,7.314 11.546,7.001 L17.822,0.734 C18.134,0.422 18.648,0.422 18.963,0.734 L21.245,3.015 Z" id="Shape"></path>
        </g>
    </g>
</svg>